<?xml version="1.0" encoding="UTF-8" standalone="no"?>
<svg
   xmlns:dc="http://purl.org/dc/elements/1.1/"
   xmlns:cc="http://creativecommons.org/ns#"
   xmlns:rdf="http://www.w3.org/1999/02/22-rdf-syntax-ns#"
   xmlns:svg="http://www.w3.org/2000/svg"
   xmlns="http://www.w3.org/2000/svg"
   xmlns:sodipodi="http://sodipodi.sourceforge.net/DTD/sodipodi-0.dtd"
   xmlns:inkscape="http://www.inkscape.org/namespaces/inkscape"
   width="80mm"
   height="80mm"
   viewBox="0 0 80 80"
   version="1.1"
   id="svg8"
   inkscape:version="1.0.2 (1.0.2+r75+1)"
   sodipodi:docname="lung.svg">
  <defs
     id="defs2">
    <inkscape:path-effect
       effect="bspline"
       id="path-effect981"
       is_visible="true"
       weight="33.333333"
       steps="2"
       helper_size="0"
       apply_no_weight="true"
       apply_with_weight="true"
       only_selected="false"
       lpeversion="0" />
    <inkscape:path-effect
       effect="bspline"
       id="path-effect977"
       is_visible="true"
       weight="33.333333"
       steps="2"
       helper_size="0"
       apply_no_weight="true"
       apply_with_weight="true"
       only_selected="false"
       lpeversion="0" />
    <inkscape:path-effect
       effect="bspline"
       id="path-effect884"
       is_visible="true"
       weight="33.333333"
       steps="2"
       helper_size="0"
       apply_no_weight="true"
       apply_with_weight="true"
       only_selected="false"
       lpeversion="0" />
    <inkscape:path-effect
       effect="bspline"
       id="path-effect884-1"
       is_visible="true"
       weight="33.333333"
       steps="2"
       helper_size="0"
       apply_no_weight="true"
       apply_with_weight="true"
       only_selected="false"
       lpeversion="0" />
    <inkscape:path-effect
       effect="bspline"
       id="path-effect884-1-5"
       is_visible="true"
       weight="33.333333"
       steps="2"
       helper_size="0"
       apply_no_weight="true"
       apply_with_weight="true"
       only_selected="false"
       lpeversion="0" />
    <inkscape:path-effect
       effect="bspline"
       id="path-effect884-6"
       is_visible="true"
       weight="33.333333"
       steps="2"
       helper_size="0"
       apply_no_weight="true"
       apply_with_weight="true"
       only_selected="false"
       lpeversion="0" />
    <inkscape:path-effect
       effect="bspline"
       id="path-effect884-1-2"
       is_visible="true"
       weight="33.333333"
       steps="2"
       helper_size="0"
       apply_no_weight="true"
       apply_with_weight="true"
       only_selected="false"
       lpeversion="0" />
    <inkscape:path-effect
       effect="bspline"
       id="path-effect884-1-5-1"
       is_visible="true"
       weight="33.333333"
       steps="2"
       helper_size="0"
       apply_no_weight="true"
       apply_with_weight="true"
       only_selected="false"
       lpeversion="0" />
  </defs>
  <sodipodi:namedview
     id="base"
     pagecolor="#ffffff"
     bordercolor="#666666"
     borderopacity="1.0"
     inkscape:pageopacity="0.0"
     inkscape:pageshadow="2"
     inkscape:zoom="1.896842"
     inkscape:cx="112.04722"
     inkscape:cy="211.03454"
     inkscape:document-units="mm"
     inkscape:current-layer="g1066"
     showgrid="false"
     inkscape:window-width="1920"
     inkscape:window-height="1016"
     inkscape:window-x="1360"
     inkscape:window-y="27"
     inkscape:window-maximized="1"
     showguides="false"
     inkscape:document-rotation="0" />
  <metadata
     id="metadata5">
    <rdf:RDF>
      <cc:Work
         rdf:about="">
        <dc:format>image/svg+xml</dc:format>
        <dc:type
           rdf:resource="http://purl.org/dc/dcmitype/StillImage" />
        <dc:title></dc:title>
      </cc:Work>
    </rdf:RDF>
  </metadata>
  <g
     inkscape:label="Layer 1"
     inkscape:groupmode="layer"
     id="layer1"
     transform="translate(-11.850292,-179.49184)" />
  <g
     inkscape:groupmode="layer"
     id="layer2"
     inkscape:label="Layer 2"
     style="display:inline"
     transform="translate(-11.850292,-30.491837)">
    <g
       id="g1066">
      <circle
         r="40"
         cy="70.491837"
         cx="51.850292"
         id="path827-4"
         style="opacity:1;vector-effect:none;fill:#0066ff;fill-opacity:1;stroke:none;stroke-width:0.5;stroke-linecap:butt;stroke-linejoin:miter;stroke-miterlimit:4;stroke-dasharray:none;stroke-dashoffset:0;stroke-opacity:1"
         inkscape:export-xdpi="150"
         inkscape:export-ydpi="150" />
      <path
         transform="matrix(1.5,0,0,1.5,-187.83846,51.666828)"
         inkscape:original-d="m 158.27753,5.3139818 c -0.6297,-1.5121694 -1.25966,-3.024074 -1.88988,-4.53571422 -0.81862,-0.97661814 -1.63764,-1.95314148 -2.45685,-2.92931538 -0.94465,0.031233 -1.88961,0.062731 -2.83482,0.094494 -1.79564,1.60659844 -3.59051,3.212533 -5.38616,4.8191964 -1.22835,2.3939558 -2.45658,4.7874338 -3.68527,7.1815475 -0.15724,0.6927839 -0.31471,1.3856479 -0.47247,2.0788689 0.0633,0.346368 0.12626,0.692692 0.18899,1.039435 -0.75614,3.214476 -1.51164,6.42533 -2.26786,9.638392 -0.0627,1.228277 -0.18872,2.393585 -0.28348,3.590774 0.0948,0.283285 0.18925,0.566699 0.28348,0.850446 1.10332,0.346409 2.26813,0.692693 3.40179,1.039434 1.41746,-0.630131 2.83509,-1.260184 4.25223,-1.88988 1.38587,-0.409646 2.77209,-0.819213 4.15774,-1.228423 0.75604,-0.126227 1.51217,-0.252248 2.26785,-0.377976 1.10226,-1.826423 2.20513,-3.654034 3.3073,-5.480654 0.34668,-3.338486 0.69322,-6.677844 1.03943,-10.0163693 0.12625,-1.2915715 0.25225,-2.5831019 0.37798,-3.8742559 z"
         inkscape:path-effect="#path-effect884"
         inkscape:connector-curvature="0"
         id="path882"
         d="m 157.89954,5.2035284 c -0.25203,-1.4015845 -0.88199,-2.9134892 -1.60639,-4.1575657 -0.7244,-1.24407658 -1.54342,-2.2205993 -2.42521,-2.6930609 -0.88178,-0.4724616 -1.82674,-0.4409629 -3.19716,0.3780975 -1.37043,0.81906035 -3.1653,2.424996 -4.67735,4.4252715 -1.51206,2.0002756 -2.74029,4.3937524 -3.43331,5.937205 -0.69301,1.5434522 -0.85048,2.2363172 -0.89777,2.7561622 -0.0473,0.519846 0.0157,0.866168 -0.33097,2.646727 -0.34665,1.780559 -1.10214,4.991413 -1.52853,7.210761 -0.4264,2.219348 -0.5186,3.387326 -0.51863,4.127628 -3e-5,0.740303 0.0944,1.02371 0.69467,1.33449 0.60023,0.31078 1.76235,0.665871 3.03799,0.52408 1.27564,-0.141791 2.69326,-0.771848 4.09477,-1.291494 1.4015,-0.519646 2.78772,-0.929211 3.85856,-1.196909 1.07084,-0.267697 1.82697,-0.393719 2.75588,-1.369924 0.92891,-0.976206 2.03178,-2.803816 2.75613,-5.386358 0.72435,-2.582542 1.07088,-5.921901 1.30711,-8.236948 0.23623,-2.3150482 0.36223,-3.6065782 0.11021,-5.0081626 z"
         style="fill:#aaccff;fill-opacity:1;stroke:none;stroke-width:0.264583px;stroke-linecap:butt;stroke-linejoin:miter;stroke-opacity:1" />
      <path
         transform="matrix(1.5,0,0,1.5,-187.83846,51.666828)"
         sodipodi:nodetypes="cccccccccccccc"
         inkscape:original-d="m 158.27753,5.3139818 c -0.6297,-1.5121694 -1.25966,-3.024074 -1.88988,-4.53571422 -0.81862,-0.97661814 -1.63764,-1.95314148 -2.45685,-2.92931538 -0.94465,0.031233 -1.88961,0.062731 -2.83482,0.094494 -1.79564,1.60659844 -3.59051,3.212533 -5.38616,4.8191964 -1.22835,2.3939558 -2.45658,4.7874338 -3.68527,7.1815475 -0.15724,0.6927839 -0.31471,1.3856479 -0.47247,2.0788689 0.0633,0.346368 0.12626,0.692692 0.18899,1.039435 1.79565,4.409454 3.59144,8.820161 5.38616,13.229166 1.38587,-0.409646 2.77209,-0.819213 4.15774,-1.228423 0.75604,-0.126227 1.51217,-0.252248 2.26785,-0.377976 1.10226,-1.826423 2.20513,-3.654034 3.3073,-5.480654 0.34668,-3.338486 0.69322,-6.677844 1.03943,-10.0163693 0.12625,-1.2915715 0.25225,-2.5831019 0.37798,-3.8742559 z"
         inkscape:path-effect="#path-effect884-1"
         inkscape:connector-curvature="0"
         id="path882-7"
         d="m 157.89954,5.2035284 c -0.25203,-1.4015845 -0.88199,-2.9134892 -1.60639,-4.1575657 -0.7244,-1.24407658 -1.54342,-2.2205993 -2.42521,-2.6930609 -0.88178,-0.4724616 -1.82674,-0.4409629 -3.19716,0.3780975 -1.37043,0.81906035 -3.1653,2.424996 -4.67735,4.4252715 -1.51206,2.0002756 -2.74029,4.3937524 -3.43331,5.937205 -0.69301,1.5434522 -0.85048,2.2363172 -0.89777,2.7561622 -0.0473,0.519846 0.0157,0.866168 0.94487,3.244304 0.92918,2.378136 2.72497,6.788844 4.31545,8.788543 1.59048,1.999699 2.9767,1.590134 4.04754,1.322436 1.07084,-0.267697 1.82697,-0.393719 2.75588,-1.369924 0.92891,-0.976206 2.03178,-2.803816 2.75613,-5.386358 0.72435,-2.582542 1.07088,-5.921901 1.30711,-8.236948 0.23623,-2.3150482 0.36223,-3.6065782 0.11021,-5.0081626 z"
         style="display:inline;fill:#80b3ff;fill-opacity:1;stroke:none;stroke-width:0.264583px;stroke-linecap:butt;stroke-linejoin:miter;stroke-opacity:1" />
      <path
         transform="matrix(1.5,0,0,1.5,-187.83846,51.666828)"
         sodipodi:nodetypes="ccccccccccc"
         inkscape:original-d="m 158.27753,5.3139818 c -0.6297,-1.5121694 -1.25966,-3.024074 -1.88988,-4.53571422 -0.81862,-0.97661814 -1.63764,-1.95314148 -2.45685,-2.92931538 -0.94465,0.031233 -1.88961,0.062731 -2.83482,0.094494 -1.79564,1.60659844 -3.59051,3.212533 -5.38616,4.8191964 -0.69373,1.3024362 -1.38741,2.6045619 -2.08165,3.9074958 -0.33545,0.6482317 -0.67093,1.296266 -1.00701,1.9452341 -0.29323,1.4827775 -0.58646,2.9644845 -0.88009,4.4471215 5.03994,2.047105 10.08049,4.094826 15.11905,6.142113 0.34668,-3.338486 0.69322,-6.677844 1.03943,-10.0163693 0.12625,-1.2915715 0.25225,-2.5831019 0.37798,-3.8742559 z"
         inkscape:path-effect="#path-effect884-1-5"
         inkscape:connector-curvature="0"
         id="path882-7-9"
         d="m 157.89954,5.2035284 c -0.25203,-1.4015845 -0.88199,-2.9134892 -1.60639,-4.1575657 -0.7244,-1.24407658 -1.54342,-2.2205993 -2.42521,-2.6930609 -0.88178,-0.4724616 -1.82674,-0.4409629 -3.19716,0.3780975 -1.37043,0.81906035 -3.1653,2.424996 -4.41004,3.8795128 -1.24474,1.4545169 -1.93843,2.7566406 -2.45327,3.7322234 -0.51485,0.9755828 -0.85033,1.6236192 -1.16504,2.6894965 -0.31471,1.065877 -0.60794,2.547584 1.76526,4.312634 2.37319,1.765051 7.41374,3.812774 10.10631,3.167002 2.69257,-0.645771 3.0391,-3.98513 3.27533,-6.300177 0.23623,-2.3150482 0.36223,-3.6065782 0.11021,-5.0081626 z"
         style="display:inline;fill:#aaccff;fill-opacity:1;stroke:none;stroke-width:0.264583px;stroke-linecap:butt;stroke-linejoin:miter;stroke-opacity:1" />
      <path
         transform="matrix(-1.5,0,0,1.5,291.33096,51.678033)"
         inkscape:original-d="m 158.27753,5.3139818 c -0.6297,-1.5121694 -1.25966,-3.024074 -1.88988,-4.53571422 -0.81862,-0.97661814 -1.63764,-1.95314148 -2.45685,-2.92931538 -0.94465,0.031233 -1.88961,0.062731 -2.83482,0.094494 -1.79564,1.60659844 -3.59051,3.212533 -5.38616,4.8191964 -1.22835,2.3939558 -2.45658,4.7874338 -3.68527,7.1815475 -0.15724,0.6927839 -0.31471,1.3856479 -0.47247,2.0788689 0.0633,0.346368 0.12626,0.692692 0.18899,1.039435 -0.75614,3.214476 -1.51164,6.42533 -2.26786,9.638392 -0.0627,1.228277 -0.18872,2.393585 -0.28348,3.590774 0.0948,0.283285 0.18925,0.566699 0.28348,0.850446 1.10332,0.346409 2.26813,0.692693 3.40179,1.039434 1.41746,-0.630131 2.83509,-1.260184 4.25223,-1.88988 1.38587,-0.409646 2.77209,-0.819213 4.15774,-1.228423 0.75604,-0.126227 1.51217,-0.252248 2.26785,-0.377976 1.10226,-1.826423 2.20513,-3.654034 3.3073,-5.480654 0.34668,-3.338486 0.69322,-6.677844 1.03943,-10.0163693 0.12625,-1.2915715 0.25225,-2.5831019 0.37798,-3.8742559 z"
         inkscape:path-effect="#path-effect884-6"
         inkscape:connector-curvature="0"
         id="path882-8"
         d="m 157.89954,5.2035284 c -0.25203,-1.4015845 -0.88199,-2.9134892 -1.60639,-4.1575657 -0.7244,-1.24407658 -1.54342,-2.2205993 -2.42521,-2.6930609 -0.88178,-0.4724616 -1.82674,-0.4409629 -3.19716,0.3780975 -1.37043,0.81906035 -3.1653,2.424996 -4.67735,4.4252715 -1.51206,2.0002756 -2.74029,4.3937524 -3.43331,5.937205 -0.69301,1.5434522 -0.85048,2.2363172 -0.89777,2.7561622 -0.0473,0.519846 0.0157,0.866168 -0.33097,2.646727 -0.34665,1.780559 -1.10214,4.991413 -1.52853,7.210761 -0.4264,2.219348 -0.5186,3.387326 -0.51863,4.127628 -3e-5,0.740303 0.0944,1.02371 0.69467,1.33449 0.60023,0.31078 1.76235,0.665871 3.03799,0.52408 1.27564,-0.141791 2.69326,-0.771848 4.09477,-1.291494 1.4015,-0.519646 2.78772,-0.929211 3.85856,-1.196909 1.07084,-0.267697 1.82697,-0.393719 2.75588,-1.369924 0.92891,-0.976206 2.03178,-2.803816 2.75613,-5.386358 0.72435,-2.582542 1.07088,-5.921901 1.30711,-8.236948 0.23623,-2.3150482 0.36223,-3.6065782 0.11021,-5.0081626 z"
         style="fill:#80b3ff;fill-opacity:1;stroke:none;stroke-width:0.264583px;stroke-linecap:butt;stroke-linejoin:miter;stroke-opacity:1" />
      <path
         transform="matrix(-1.5,0,0,1.5,291.33096,51.678033)"
         sodipodi:nodetypes="cccccccccccccc"
         inkscape:original-d="m 158.27753,5.3139818 c -0.6297,-1.5121694 -1.25966,-3.024074 -1.88988,-4.53571422 -0.81862,-0.97661814 -1.63764,-1.95314148 -2.45685,-2.92931538 -0.94465,0.031233 -1.88961,0.062731 -2.83482,0.094494 -1.79564,1.60659844 -3.59051,3.212533 -5.38616,4.8191964 -1.22835,2.3939558 -2.45658,4.7874338 -3.68527,7.1815475 -0.077,0.3864319 -0.15371,0.7728769 -0.23026,1.1601299 -0.30777,2.079392 -0.61482,4.155974 -0.92185,6.234486 2.37431,4.74374 4.74838,9.486744 7.12342,14.231427 0.27206,-6.000898 0.54419,-11.997288 0.81687,-17.999586 2.09297,0.943246 4.18489,1.886162 6.27689,2.829259 0.45614,-1.002797 0.91286,-2.005999 1.3696,-3.008411 0.47978,-1.401174 0.95996,-2.802459 1.44033,-4.2032573 0.12625,-1.2915715 0.25225,-2.5831019 0.37798,-3.8742559 z"
         inkscape:path-effect="#path-effect884-1-2"
         inkscape:connector-curvature="0"
         id="path882-7-5"
         d="m 157.89954,5.2035284 c -0.25203,-1.4015845 -0.88199,-2.9134892 -1.60639,-4.1575657 -0.7244,-1.24407658 -1.54342,-2.2205993 -2.42521,-2.6930609 -0.88178,-0.4724616 -1.82674,-0.4409629 -3.19716,0.3780975 -1.37043,0.81906035 -3.1653,2.424996 -4.67735,4.4252715 -1.51206,2.0002756 -2.74029,4.3937524 -3.39294,5.7840806 -0.65265,1.3903286 -0.72935,1.7767746 -0.92151,3.0100896 -0.19216,1.233315 -0.49921,3.309897 0.53433,6.720975 1.03354,3.411078 3.40761,8.154082 4.73125,7.526007 1.32364,-0.628075 1.59577,-6.624465 2.77843,-9.153938 1.18266,-2.529472 3.27458,-1.586556 4.54883,-1.616392 1.27426,-0.02984 1.73098,-1.033041 2.19924,-2.234851 0.46826,-1.201811 0.94844,-2.603096 1.25147,-3.9493476 0.30303,-1.3462516 0.42903,-2.6377816 0.17701,-4.039366 z"
         style="display:inline;fill:#aaccff;fill-opacity:1;stroke:none;stroke-width:0.264583px;stroke-linecap:butt;stroke-linejoin:miter;stroke-opacity:1" />
      <path
         transform="matrix(-1.5,0,0,1.4769055,291.33096,51.977532)"
         style="fill:#ffffff;stroke:none;stroke-width:0.264583px;stroke-linecap:butt;stroke-linejoin:miter;stroke-opacity:1"
         d="m 159.25843,-9.3674327 c -0.17127,-0.069678 -0.28527,-0.2405744 -0.52755,-0.1339425 -0.24227,0.1066319 -0.61232,0.4901453 -0.79749,2.5542049 -0.18517,2.0640595 -0.18517,5.8030337 -0.15996,8.1082157 0.0252,2.305182 0.0756,3.1736617 -0.1583,3.7975068 -0.23396,0.623845 -0.75196,1.0024404 -1.57908,1.0247061 -0.82711,0.022266 -1.9631,-0.3118497 -2.59768,-0.4009244 -0.63458,-0.089075 -0.76826,0.066874 -0.50111,0.2784269 0.26715,0.2115532 0.93523,0.4787889 1.58129,0.6793032 0.64606,0.2005144 1.26939,0.3340849 1.16912,0.8688777 -0.10027,0.5347929 -0.92395,1.4697785 -1.31374,2.0821336 -0.3898,0.6123547 -0.34526,0.9018857 -0.12238,0.9688007 0.22288,0.06692 0.62338,-0.08883 1.29179,-0.6792669 0.66841,-0.5904327 1.60353,-1.6146091 2.33844,-2.2270654 0.73491,-0.6124562 1.26946,-0.8129119 1.84854,-0.7350248 0.57909,0.077887 1.20254,0.4341452 1.51452,0.6124156 0.31197,0.1782704 2.38331,2.2496091 2.61711,2.4054732 0.23379,0.1558642 0.70134,0.4675633 0.91307,1.0691853 0.21173,0.601621 0.16722,1.491937 0.23404,1.859547 0.0668,0.36761 0.24496,0.211747 0.38976,-0.267275 0.1448,-0.479021 0.25615,-1.280746 0.82482,-1.637878 0.56867,-0.357132 1.63599,-0.266297 1.65811,-0.366596 0.0221,-0.100299 -0.97987,-0.389763 -1.79333,-0.6099154 -0.81345,-0.2201525 -1.4806,-0.3811876 -1.94816,-0.7709274 -0.46757,-0.3897397 -0.75726,-1.0136713 -0.60153,-1.3920856 0.15573,-0.3784143 0.7574,-0.5121187 1.52594,-0.6680566 0.76855,-0.1559379 1.70369,-0.3340598 1.73693,-0.4448984 0.0332,-0.1108386 -0.87966,-0.1564842 -1.61457,-0.1680242 -0.73491,-0.01154 -1.35869,0.011563 -1.95912,-0.2052274 -0.60043,-0.2167902 -1.1213,-0.6126728 -1.41068,-2.1154046 -0.28938,-1.5027318 -0.30829,-4.08512365 -0.32887,-6.3332568 -0.0206,-2.2481332 -0.0429,-4.163763 -0.31014,-5.2994873 -0.26728,-1.1357243 -0.77943,-1.4919043 -1.14969,-1.6538666 -0.37027,-0.1619623 -0.59884,-0.1299955 -0.7701,-0.1996734 z"
         id="path975"
         inkscape:connector-curvature="0"
         inkscape:path-effect="#path-effect977"
         inkscape:original-d="m 159.20142,-9.2658298 c -0.11432,-0.1712388 -0.22832,-0.3421357 -0.34221,-0.5130016 -0.37087,0.3838314 -0.74092,0.7673442 -1.11099,1.1514127 -2.7e-4,3.7443079 -2.7e-4,7.4832821 0,11.22532 0.0502,0.8683393 0.10062,1.73682 0.15132,2.605627 -0.51859,0.3785724 -1.03659,0.7571663 -1.55449,1.1361465 -1.13606,-0.3343217 -2.27205,-0.6684386 -3.40768,-1.0022607 -0.13387,0.1555993 -0.26754,0.3115498 -0.40091,0.4677214 0.668,0.2670424 1.33609,0.5342747 2.00452,0.8018087 0.62367,0.1334341 1.247,0.267005 1.87089,0.4009043 -0.82475,0.9356394 -1.64843,1.8706221 -2.47224,2.8063301 0.0443,0.2892824 0.0888,0.5788194 0.13363,0.8686254 0.40105,-0.156332 0.80155,-0.312079 1.20271,-0.467721 0.93551,-1.025157 1.87063,-2.0493311 2.80633,-3.0735998 0.53427,-0.2007143 1.06882,-0.4011689 1.60362,-0.6013564 0.62354,0.3561914 1.24699,0.7124541 1.87089,1.0690781 l 2.07134,2.0713387 c 0.46763,0.3116694 0.93518,0.6233644 1.40316,0.9354434 -0.0448,0.891215 -0.0893,1.781532 -0.13363,2.672695 0.17796,-0.156215 0.35609,-0.312079 0.53454,-0.467721 0.11111,-0.802158 0.22246,-1.603882 0.33408,-2.405426 1.02399,0.111066 2.09335,0.177915 3.14042,0.267269 -1.0028,-0.289885 -2.00479,-0.579348 -3.00678,-0.8686254 -0.6237,-0.156123 -1.29207,-0.3120792 -1.9377,-0.4677217 -0.28967,-0.6235938 -0.57936,-1.2475226 -0.86863,-1.8708867 0.60078,-0.133831 1.20245,-0.2675343 1.80407,-0.4009044 0.93548,-0.1785024 1.87062,-0.3566239 2.80633,-0.534539 -0.86909,-0.044819 -1.78206,-0.089355 -2.6727,-0.1336347 -0.57917,0.022 -1.20298,0.04428 -1.80407,0.066817 -0.55684,-0.5123146 -1.1206,-0.8517652 -1.6805,-1.2772507 -0.0192,-2.5799365 -0.0381,-5.16232847 -0.0567,-7.7430958 -0.0225,-1.9154985 -0.0448,-3.8311279 -0.0668,-5.7462947 -0.51226,-0.3563419 -1.02441,-0.71252 -1.53622,-1.0683827 -0.2288,0.031697 -0.45737,0.063664 -0.6856,0.095885 z"
         sodipodi:nodetypes="cccccccccccccccccccccccccccccccccc" />
      <rect
         rx="1.1103051"
         ry="6.0166736"
         y="37.968235"
         x="49.167629"
         height="22.111279"
         width="5.5223565"
         id="rect983"
         style="opacity:1;vector-effect:none;fill:#ffffff;fill-opacity:1;stroke:none;stroke-width:0.762511;stroke-linecap:butt;stroke-linejoin:miter;stroke-miterlimit:4;stroke-dasharray:none;stroke-dashoffset:0;stroke-opacity:1" />
      <rect
         transform="rotate(90)"
         ry="1.2482578"
         y="-55.082424"
         x="37.439068"
         height="6.3072343"
         width="4.9189796"
         id="rect983-7"
         style="display:inline;opacity:1;vector-effect:none;fill:#ffffff;fill-opacity:1;stroke:none;stroke-width:0.384356;stroke-linecap:butt;stroke-linejoin:miter;stroke-miterlimit:4;stroke-dasharray:none;stroke-dashoffset:0;stroke-opacity:1" />
    </g>
  </g>
</svg>
